# xmcd CD database file
#
# Track frame offsets:
#	150
#	3922
#	19793
#	33690
#	64564
#	84680
#	99309
#	115195
#	133534
#	148926
#	178539
#	193401
#	210401
#	226689
#	256815
#	300299
#	319890
#	335781
#
# Disc length: 4654 seconds
#
# Revision: 0
# Processed by: cddbd v1.5.1PL2 Copyright (c) Steve Scherf et al.
# Submitted via: Feurio! 1.68 - http://www.feurio.com
#
DISCID=f3122c12
DTITLE=Crosby, Stills, Nash and Young - Four Way Street
DYEAR=1900
DGENRE=
TTITLE0=Suite: Judy Blue Eyes
TTITLE1=On The Way Home
TTITLE2=Teach Your Children
TTITLE3=Triad
TTITLE4=Lee Shore
TTITLE5=Chicago
TTITLE6=Right Between The Eyes
TTITLE7=Cowgirl In The Sand
TTITLE8=Don't Let It Bring Your Down
TTITLE9=49 Bye Byes
TTITLE10=Love The One You're With
TTITLE11=King Midas In Reverse
TTITLE12=Laughing
TTITLE13=Black Queen
TTITLE14=The Loner - Cinnamon Girl - Down By The River
TTITLE15=Crosby, Nash, Stills and Young - Carry On
TTITLE16=Helpless
TTITLE17=Cinnamon Girl
EXTD=
EXTT0=
EXTT1=
EXTT2=
EXTT3=
EXTT4=
EXTT5=
EXTT6=
EXTT7=
EXTT8=
EXTT9=
EXTT10=
EXTT11=
EXTT12=
EXTT13=
EXTT14=
EXTT15=
EXTT16=
EXTT17=
PLAYORDER=
